# xmcd
#
# Track frame offsets:
#	150
#	22389
#	44251
#	67048
#	87718
#	107217
#	131074
#	151854
#	173733
#	198210
#	218037
#	240909
#	267131
#	287163
#	309635
#	329405
#
# Disc length: 4671 seconds
#
# Revision: 1
# Processed by: cddbd v1.5.1PL0 Copyright (c) Steve Scherf et al.
# Submitted via: CDex 1.50Beta5
#
DISCID=ec123d10
DTITLE=中西圭三 - SINGLES II Disc 1
DYEAR=2000
DGENRE=
TTITLE0=Woman
TTITLE1=Ticket To Paradise
TTITLE2=You and I
TTITLE3=眠れぬ想い
TTITLE4=非常階段 Radio Mix
TTITLE5=新しい僕になろう
TTITLE6=SO BAD
TTITLE7=Why Goodbye(Single Mix)
TTITLE8=MUST BE HEAVEN
TTITLE9=Happy Ever After
TTITLE10=次の夢
TTITLE11=What I Do For Love(Full Length Version)
TTITLE12=All I Wanna Do
TTITLE13=愛はいま
TTITLE14=願い
TTITLE15=LOVE ME OR LET ME GO
EXTD=
EXTT0=
EXTT1=
EXTT2=
EXTT3=
EXTT4=
EXTT5=
EXTT6=
EXTT7=
EXTT8=
EXTT9=
EXTT10=
EXTT11=
EXTT12=
EXTT13=
EXTT14=
EXTT15=
PLAYORDER=
